<?xml version="1.0" encoding="UTF-8" standalone="no"?> <svg xmlns="http://www.w3.org/2000/svg" viewBox="0 0 143.431 33.451" version="1.1"><g transform="translate(-43.467195,-105.64427)"><g aria-label="Flowscan"><path d="m 87.292329,130.43259 v -15.96815 h 10.572658 v 2.78351 h -7.196581 v 3.80491 h 6.494856 v 2.78351 h -6.494856 v 6.59622 z"/><path d="m 103.393,114.46444 v 15.96815 h -3.3215 v -15.96815 z"/><path d="m 111.45503,130.6665 q -1.81669,0 -3.14217,-0.7719 -1.31768,-0.7797 -2.035,-2.16755 -0.71732,-1.39566 -0.71732,-3.23574 0,-1.85567 0.71732,-3.24353 0.71732,-1.39565 2.035,-2.16755 1.32548,-0.77969 3.14217,-0.77969 1.81669,0 3.13438,0.77969 1.32548,0.7719 2.04279,2.16755 0.71732,1.38786 0.71732,3.24353 0,1.84008 -0.71732,3.23574 -0.71731,1.38785 -2.04279,2.16755 -1.31769,0.7719 -3.13438,0.7719 z m 0.0156,-2.573 q 0.82647,0 1.38006,-0.46781 0.55358,-0.47562 0.83427,-1.2943 0.28849,-0.81868 0.28849,-1.86347 0,-1.04479 -0.28849,-1.86347 -0.28069,-0.81868 -0.83427,-1.29429 -0.55359,-0.47561 -1.38006,-0.47561 -0.83428,0 -1.40345,0.47561 -0.56138,0.47561 -0.84987,1.29429 -0.28069,0.81868 -0.28069,1.86347 0,1.04479 0.28069,1.86347 0.28849,0.81868 0.84987,1.2943 0.56917,0.46781 1.40345,0.46781 z"/><path d="m 121.58326,130.43259 -3.25913,-11.97611 h 3.36049 l 1.85567,8.04645 h 0.10916 l 1.93364,-8.04645 h 3.29811 l 1.96483,7.99966 h 0.10136 l 1.82448,-7.99966 h 3.35269 l -3.25133,11.97611 h -3.51642 l -2.05839,-7.53185 h -0.14815 l -2.05839,7.53185 z"/><path d="m 147.85115,121.87154 -3.0408,0.18713 q -0.078,-0.38985 -0.33527,-0.70173 -0.2573,-0.31967 -0.67834,-0.5068 -0.41324,-0.19492 -0.99021,-0.19492 -0.7719,0 -1.30209,0.32747 -0.53019,0.31967 -0.53019,0.85766 0,0.42883 0.34306,0.72512 0.34307,0.29628 1.17734,0.47561 l 2.16755,0.43663 q 1.74652,0.35866 2.60418,1.15395 0.85767,0.79529 0.85767,2.08958 0,1.17734 -0.69393,2.06619 -0.68613,0.88885 -1.88686,1.38786 -1.19293,0.49121 -2.75232,0.49121 -2.37807,0 -3.78932,-0.99022 -1.40345,-0.99801 -1.64516,-2.71333 l 3.26693,-0.17154 q 0.14814,0.72512 0.71731,1.10717 0.56918,0.37425 1.45803,0.37425 0.87326,0 1.40345,-0.33527 0.53799,-0.34306 0.54579,-0.88105 -0.008,-0.45222 -0.38205,-0.74071 -0.37425,-0.29628 -1.15395,-0.45222 l -2.07399,-0.41324 q -1.75431,-0.35086 -2.61197,-1.21633 -0.84987,-0.86546 -0.84987,-2.20653 0,-1.15395 0.62376,-1.98822 0.63155,-0.83428 1.7699,-1.2865 1.14615,-0.45222 2.68215,-0.45222 2.26891,0 3.571,0.95902 1.30989,0.95903 1.5282,2.61198 z"/><path d="m 155.63248,130.6665 q -1.84008,0 -3.16556,-0.7797 -1.31768,-0.78749 -2.0272,-2.18314 -0.70173,-1.39566 -0.70173,-3.21235 0,-1.84008 0.70952,-3.22793 0.71732,-1.39566 2.035,-2.17535 1.31769,-0.78749 3.13438,-0.78749 1.56718,0 2.74452,0.56918 1.17734,0.56917 1.86347,1.59837 0.68613,1.0292 0.75631,2.41705 h -3.13438 q -0.13254,-0.89665 -0.70172,-1.44243 -0.56138,-0.55359 -1.47362,-0.55359 -0.7719,0 -1.34888,0.42104 -0.56917,0.41324 -0.88885,1.20853 -0.31967,0.79529 -0.31967,1.92584 0,1.14615 0.31188,1.94924 0.31967,0.80308 0.89664,1.22412 0.57698,0.42103 1.34888,0.42103 0.56917,0 1.0214,-0.2339 0.46002,-0.23391 0.7563,-0.67834 0.30408,-0.45222 0.39764,-1.08377 h 3.13438 q -0.078,1.37226 -0.74851,2.41705 -0.66274,1.03699 -1.83228,1.62176 -1.16955,0.58478 -2.76792,0.58478 z"/><path d="m 166.53258,130.6587 q -1.14615,0 -2.0428,-0.39765 -0.89665,-0.40544 -1.41904,-1.19293 -0.5146,-0.79529 -0.5146,-1.98042 0,-0.99801 0.36646,-1.67635 0.36645,-0.67833 0.998,-1.09157 0.63156,-0.41324 1.43464,-0.62375 0.81088,-0.21052 1.69974,-0.29629 1.04479,-0.10916 1.68414,-0.20272 0.63935,-0.10136 0.92783,-0.29628 0.28849,-0.19493 0.28849,-0.57698 v -0.0468 q 0,-0.74071 -0.46782,-1.14615 -0.46002,-0.40544 -1.30988,-0.40544 -0.89665,0 -1.42684,0.39764 -0.5302,0.38985 -0.70173,0.98242 l -3.072,-0.2495 q 0.23391,-1.09158 0.92004,-1.88686 0.68613,-0.80309 1.76991,-1.23192 1.09157,-0.43663 2.52621,-0.43663 0.99801,0 1.91025,0.23391 0.92004,0.23391 1.62956,0.72511 0.71732,0.49121 1.13056,1.26311 0.41324,0.7641 0.41324,1.83228 v 8.07764 h -3.14997 v -1.66075 h -0.0936 q -0.28849,0.56138 -0.7719,0.99021 -0.48341,0.42103 -1.16174,0.66274 -0.67834,0.23391 -1.56719,0.23391 z m 0.95123,-2.2923 q 0.73291,0 1.29429,-0.28849 0.56138,-0.29628 0.88106,-0.79529 0.31967,-0.499 0.31967,-1.13056 v -1.2709 q -0.15594,0.10136 -0.42883,0.18713 -0.2651,0.078 -0.60037,0.14814 -0.33526,0.0624 -0.67053,0.11695 -0.33527,0.0468 -0.60816,0.0858 -0.58478,0.0858 -1.0214,0.27289 -0.43663,0.18713 -0.67834,0.50681 -0.2417,0.31187 -0.2417,0.77969 0,0.67833 0.4912,1.03699 0.49901,0.35087 1.26311,0.35087 z"/><path d="m 179.17922,123.5089 v 6.92369 h -3.3215 v -11.97611 h 3.16556 v 2.11297 h 0.14035 q 0.39764,-1.04479 1.33328,-1.65295 0.93563,-0.61596 2.26891,-0.61596 1.24751,0 2.17534,0.54579 0.92784,0.54578 1.44244,1.55938 0.5146,1.00581 0.5146,2.40146 v 7.62542 h -3.3215 v -7.03285 q 0.008,-1.09937 -0.56138,-1.71533 -0.56918,-0.62375 -1.56719,-0.62375 -0.67053,0 -1.18513,0.28848 -0.5068,0.28849 -0.79529,0.84207 -0.28069,0.54579 -0.28849,1.31769 z"/></g><path d="m 60.192707,139.09527 a 16.849427,16.849427 0 0 1 -3.370772,-0.33978 16.633501,16.633501 0 0 1 -5.980617,-2.5166 16.774246,16.774246 0 0 1 -6.059729,-7.35871 16.641864,16.641864 0 0 1 -0.974595,-3.13963 16.888732,16.888732 0 0 1 0,-6.74154 16.633501,16.633501 0 0 1 2.516685,-5.98062 16.774246,16.774246 0 0 1 7.358715,-6.05973 16.641864,16.641864 0 0 1 3.139541,-0.97459 16.888732,16.888732 0 0 1 6.741544,0 16.633501,16.633501 0 0 1 5.980619,2.51668 16.774246,16.774246 0 0 1 6.059728,7.35872 16.641864,16.641864 0 0 1 0.974593,3.13954 16.888732,16.888732 0 0 1 0,6.74154 16.633501,16.633501 0 0 1 -2.516599,5.98062 16.774246,16.774246 0 0 1 -7.358716,6.05973 16.641864,16.641864 0 0 1 -3.139541,0.97459 16.849427,16.849427 0 0 1 -3.370856,0.33978 z m 0,-27.17892 a 10.453432,10.453432 0 1 0 10.453434,10.45343 10.465307,10.465307 0 0 0 -10.453434,-10.45343 z" fill="#2c2c2c" style="stroke-width:.0836274"/></g></svg>
