<svg xmlns="http://www.w3.org/2000/svg" viewBox="0 0 1715.11 323.52"><defs><style>.cls-1{fill:#fff;}.cls-2{fill:#c8102e;}.cls-3{fill:#1d428a;}</style></defs><g id="Layer_2" data-name="Layer 2"><g id="Layer_1-2" data-name="Layer 1"><path d="M373.86,65.85H314.53L237,316.48H171.72L248.24,65.85h-61.5L204.49,7H392.28Z"/><path d="M419.1,7H609.5L508.6,316.48H321.75ZM405.5,257.83h57.13l61.83-192H466.65Z"/><path d="M601.91,316.48H537.06L624.2,50.65,686.27,7H821.5L743.25,237.93H628Zm96-137.84L735.7,65.85H685.07L647.64,178.64Z"/><path d="M953,316.48H782.83l33-96.32h65.24L868,257.83H908.4l17.2-49.23-77-77.69L891.13,7h169.25l-32.51,92H968.22l11.53-33h-43l-14,40.45L999.8,184Z"/><path d="M1111.35,134.12h56.27L1213.7,7h66.08L1166.37,316.48h-64.85l44.84-123.71h-56.07l-44.42,123.71H981L1090.91,7H1157Z"/><path d="M1307.92,7h190.4L1380.83,316.48H1194Zm-27.05,250.84H1338l72.12-192h-57.81Z"/><path d="M1692,65.85h-59.33l-97.53,250.63h-65.28l96.52-250.63h-61.5L1527.33,7h187.78Z"/><path class="cls-1" d="M109.24,0H33.49A33.52,33.52,0,0,0,0,33.48V290a33.54,33.54,0,0,0,33.49,33.53h75.69A33.6,33.6,0,0,0,142.74,290V33.48A33.54,33.54,0,0,0,109.24,0"/><path class="cls-2" d="M90.45,59.31l.08,1.09c2.31,1.35,3.48,2.44,5.8,3.94,6.18,3.89,13.79,10.8,12.83,34.62,1.73,5.19,2.5,15.4,4.1,18.67,3.22,6.38,5.37,10.53,6.31,16.56,0,0,.92,9.37,2.13,10.05,6.39,1.44,4.54,2.07,5.48,3.16,1,1.29,4.68,1.23,4.68,4.66a22.54,22.54,0,0,1,2.94,5.35V33.48A25.6,25.6,0,0,0,109.24,7.9H84.76c3.94,1.39,6.15,3,7.45,5.66,3.16.27,6.92,7.35,1.06,17.82,2.6,1.72.57,4.3-1.29,7.3-.54,1-1.14,2.66-2.87,2.55-2.22,4.68-4.91,9.21-6.93,9.49-.62.76-1.06,2.77-.14,3.72,3,1.33,6.61,3.16,8.41,4.87"/><path class="cls-2" d="M134.8,174.2a22.84,22.84,0,1,1-26.62-30.64c-2.63-6.58-8.19-17.25-9.84-20.75S93,97.63,92.21,93.33c-.19-.93-9.85,5.61-9.87,6-.56.54-7.25,18-7.53,18.94a28.26,28.26,0,0,0-.15,2.93s3.29.41,5.18,6.14S87.42,154,87.42,154a13.37,13.37,0,0,1-1.61,1.5C93,179.63,90.5,190,93.73,197.09c4.07,10,5.17,8.67,8.65,17,2.51,6.11,5.3,30.14,6.23,31.21,3.89,4.93,6,8.79,6,11.57s-3.3,11.08-2.1,15.9c.73,2.83,1.11,9.19,2.43,10.4,0,0,1.21,2.38.62,3.44-.17.37-.52.92-.36,1.36,2.14,7.58,9.07,20.5-2.15,27.27h.24A25.43,25.43,0,0,0,134.8,290Z"/><path class="cls-3" d="M106,285.07c-4.11-3.67-1.36-5.22-1.53-6.67-2.71-11.21-11.61-18-7-21.68-1.13-3.7-3.45-8.35-3.36-8.34-13.87-8-25.68-20.9-27.69-22.8-2.43-2.64-6.57-5.3-7.35-7.44-3.34-3.07-19.68-26.26-23.49-34.8l-6.64-.93c-3-12.33-13.09-22.67-13.34-35-.09-4.67,2.12-14.68,2.94-16.68s4.67-5.35,4.67-5.35V122c-14.47.41-10.31-1.07-12.81-6.69-1.75-3.9-.49-4.76.14-7.46,1.94-8,8.39-20.28,11.06-25.87.82-2.82,3.61-9.62,3.61-9.62C36,50.44,40,52.05,52.8,50.81l.63-.9C66.27,49.35,64.17,48.38,66,36c-1.87.81-2.42-3.87-2.42-3.87-1-7,1.94-5.7,3.35-5.84.3-11.58,1.49-15.22,9.83-18.41H33.5A25.61,25.61,0,0,0,7.89,33.5V290A25.61,25.61,0,0,0,33.5,315.61h75.74C100.57,310.92,105.69,302,106,285.07Z"/><path class="cls-1" d="M47.83,299.49V253.05h9c5.21,0,8.43,2.8,8.43,9.3v6.9c0,4.22-1.29,6.37-3.09,7.41,1.8,1.24,3.09,3.32,3.09,6.83v6.76c0,6.38-3.41,9.24-8.43,9.24ZM54,279.32v14.31h2.38c2.12,0,2.7-1.1,2.7-3.31v-7.87c0-2.28-.71-3.13-2.77-3.13Zm0-20.42v15.35h2.31c2.19,0,2.77-.78,2.77-3.32V262c0-2.15-.65-3.13-2.7-3.13Zm25.8,31.16h-5.6l-.77,9.43H67.2l5.6-46.44h8.88l5.4,46.44h-6.5ZM77,258.25h-.32c-.38,5.6-1.16,15.42-1.41,18.54l-.71,8h4.83l-.71-8c-.26-3.19-1.16-12.88-1.68-18.54M29.42,299.49H24V253.05h8.57l6.88,38.05c-.58-9.11-1.35-20.1-1.35-29.46v-8.59h5.41v46.44H35.66l-6.88-37.21c.45,8.59.64,15.42.64,22.57Z"/></g></g></svg>